<svg width="270" height="62" viewBox="0 0 270 62" fill="none" xmlns="http://www.w3.org/2000/svg">
<path d="M10.688 11.264H19.904L18.88 16.064C21.0133 14.2293 23.5093 13.312 26.368 13.312C28.7573 13.312 30.656 14.1013 32.064 15.68C33.472 17.2587 34.176 19.84 34.176 23.424C34.176 26.7947 33.6853 30.208 32.704 33.664C31.7227 37.0773 30.0587 40 27.712 42.432C25.3653 44.8213 22.272 46.016 18.432 46.016C15.7013 46.016 13.888 45.248 12.992 43.712L9.664 59.328L0 61.632L10.688 11.264ZM16.448 40.448C18.496 40.448 20.1813 39.488 21.504 37.568C22.8693 35.648 23.8507 33.3653 24.448 30.72C25.088 28.032 25.408 25.536 25.408 23.232C25.408 19.6907 24.3413 17.92 22.208 17.92C21.44 17.92 20.6507 18.1973 19.84 18.752C19.072 19.3067 18.3893 20.0747 17.792 21.056L14.016 38.976C14.3573 39.9573 15.168 40.448 16.448 40.448ZM42.0975 46.016C40.0495 46.016 38.3855 45.376 37.1055 44.096C35.8682 42.816 35.2495 40.896 35.2495 38.336C35.2495 37.2693 35.4202 35.8827 35.7615 34.176L42.6095 2.112L52.0815 0.832004L44.7215 35.392C44.5508 36.032 44.4655 36.7147 44.4655 37.44C44.4655 38.2933 44.6575 38.912 45.0415 39.296C45.4682 39.6373 46.1508 39.808 47.0895 39.808C48.3268 39.808 49.4788 39.296 50.5455 38.272C51.6122 37.2053 52.3802 35.84 52.8495 34.176H55.5375C53.9588 38.784 51.9322 41.92 49.4575 43.584C46.9828 45.2053 44.5295 46.016 42.0975 46.016ZM60.504 46.016C58.072 46.016 56.0453 45.184 54.424 43.52C52.8027 41.856 51.992 39.2533 51.992 35.712C51.992 32.5547 52.6107 29.248 53.848 25.792C55.128 22.2933 57.0053 19.3493 59.48 16.96C61.9973 14.528 64.984 13.312 68.44 13.312C70.1893 13.312 71.4907 13.6107 72.344 14.208C73.1973 14.8053 73.624 15.5947 73.624 16.576V17.024L74.328 13.632H83.544L78.936 35.392C78.7653 36.032 78.68 36.7147 78.68 37.44C78.68 39.2747 79.5547 40.192 81.304 40.192C82.4987 40.192 83.5227 39.6373 84.376 38.528C85.272 37.4187 85.976 35.968 86.488 34.176H89.176C87.5973 38.784 85.6347 41.92 83.288 43.584C80.984 45.2053 78.6587 46.016 76.312 46.016C74.52 46.016 73.0693 45.5253 71.96 44.544C70.8933 43.52 70.2533 42.048 70.04 40.128C68.8027 41.8773 67.416 43.3067 65.88 44.416C64.3867 45.4827 62.5947 46.016 60.504 46.016ZM64.664 39.808C65.7307 39.808 66.776 39.3173 67.8 38.336C68.8667 37.312 69.592 35.9253 69.976 34.176L73.048 19.712C73.048 19.1573 72.8347 18.624 72.408 18.112C71.9813 17.5573 71.32 17.28 70.424 17.28C68.7173 17.28 67.1813 18.2827 65.816 20.288C64.4507 22.2507 63.384 24.64 62.616 27.456C61.848 30.2293 61.464 32.6827 61.464 34.816C61.464 36.9493 61.7627 38.3147 62.36 38.912C63 39.5093 63.768 39.808 64.664 39.808ZM92.8475 46.016C90.7995 46.016 89.1355 45.376 87.8555 44.096C86.6182 42.816 85.9995 40.896 85.9995 38.336C85.9995 37.2693 86.1702 35.8827 86.5115 34.176L90.3515 16.192H88.2395L88.7515 13.632H90.8635L92.7835 4.8L102.256 3.52L100.08 13.632H103.92L103.407 16.192H99.5675L95.4715 35.392C95.3008 36.032 95.2155 36.7147 95.2155 37.44C95.2155 38.2933 95.4075 38.912 95.7915 39.296C96.2182 39.6373 96.9008 39.808 97.8395 39.808C99.0768 39.808 100.229 39.296 101.296 38.272C102.362 37.2053 103.13 35.84 103.6 34.176H106.288C104.709 38.784 102.682 41.92 100.208 43.584C97.7328 45.2053 95.2795 46.016 92.8475 46.016ZM112.918 45.888C109.761 45.888 107.265 45.0773 105.43 43.456C103.595 41.8347 102.678 39.2747 102.678 35.776C102.678 32.8747 103.275 29.6533 104.47 26.112C105.665 22.5707 107.585 19.52 110.23 16.96C112.875 14.3573 116.203 13.056 120.214 13.056C125.675 13.056 128.406 16.4693 128.406 23.296V23.36C128.534 23.4027 128.769 23.424 129.11 23.424C130.518 23.424 132.139 23.0613 133.974 22.336C135.809 21.568 137.473 20.6507 138.966 19.584L139.542 21.312C138.305 22.6347 136.683 23.7653 134.678 24.704C132.715 25.6 130.561 26.24 128.214 26.624C127.873 30.5067 126.998 33.8987 125.59 36.8C124.182 39.7013 122.369 41.9413 120.15 43.52C117.931 45.0987 115.521 45.888 112.918 45.888ZM115.478 40.128C116.502 40.128 117.526 39.552 118.55 38.4C119.574 37.2053 120.47 35.6053 121.238 33.6C122.006 31.552 122.561 29.2907 122.902 26.816C121.75 26.56 121.174 25.664 121.174 24.128C121.174 22.3787 121.835 21.2267 123.158 20.672C123.073 19.264 122.859 18.304 122.518 17.792C122.177 17.2373 121.579 16.96 120.726 16.96C119.318 16.96 117.953 17.984 116.63 20.032C115.307 22.08 114.241 24.5333 113.43 27.392C112.619 30.2507 112.214 32.768 112.214 34.944C112.214 36.992 112.449 38.3787 112.918 39.104C113.387 39.7867 114.241 40.128 115.478 40.128ZM154.803 46.016C152.2 46.016 150.28 45.3333 149.043 43.968C147.848 42.56 147.251 40.832 147.251 38.784C147.251 37.888 147.358 36.8853 147.571 35.776C147.784 34.624 147.998 33.5147 148.211 32.448C148.467 31.3813 148.638 30.6987 148.723 30.4C149.064 28.9067 149.384 27.4347 149.683 25.984C149.982 24.5333 150.131 23.36 150.131 22.464C150.131 20.288 149.363 19.2 147.827 19.2C146.718 19.2 145.736 19.7547 144.883 20.864C144.03 21.9307 143.347 23.3387 142.835 25.088L138.483 45.632H129.267L136.051 13.632H145.267L144.563 16.96C146.696 14.5707 149.192 13.376 152.051 13.376C154.227 13.376 155.955 13.9733 157.235 15.168C158.515 16.3627 159.155 18.176 159.155 20.608C159.155 21.8453 159.006 23.232 158.707 24.768C158.408 26.2613 157.982 28.096 157.427 30.272C157.086 31.5947 156.766 32.896 156.467 34.176C156.211 35.4133 156.083 36.3947 156.083 37.12C156.083 37.9733 156.275 38.6347 156.659 39.104C157.043 39.5733 157.704 39.808 158.643 39.808C159.923 39.808 160.947 39.36 161.715 38.464C162.483 37.5253 163.251 36.096 164.019 34.176H166.707C165.128 38.8693 163.294 42.0267 161.203 43.648C159.155 45.2267 157.022 46.016 154.803 46.016ZM174.7 10.176C173.292 10.176 172.097 9.6853 171.116 8.704C170.134 7.72267 169.644 6.528 169.644 5.12C169.644 3.712 170.134 2.51733 171.116 1.536C172.097 0.512001 173.292 0 174.7 0C176.108 0 177.302 0.512001 178.284 1.536C179.308 2.51733 179.82 3.712 179.82 5.12C179.82 6.528 179.308 7.72267 178.284 8.704C177.302 9.6853 176.108 10.176 174.7 10.176ZM170.348 46.016C168.3 46.016 166.636 45.376 165.356 44.096C164.118 42.816 163.499 40.896 163.499 38.336C163.499 37.2693 163.67 35.8827 164.012 34.176L168.364 13.632H177.58L172.972 35.392C172.801 36.032 172.716 36.7147 172.716 37.44C172.716 38.2933 172.908 38.912 173.292 39.296C173.718 39.6373 174.401 39.808 175.34 39.808C176.577 39.808 177.729 39.296 178.796 38.272C179.862 37.2053 180.63 35.84 181.1 34.176H183.788C182.209 38.784 180.182 41.92 177.708 43.584C175.233 45.2053 172.78 46.016 170.348 46.016ZM189.714 46.016C186.599 46.016 184.167 45.2053 182.418 43.584C180.669 41.92 179.794 39.3387 179.794 35.84C179.794 32.896 180.37 29.6533 181.522 26.112C182.717 22.5707 184.594 19.52 187.154 16.96C189.757 14.3573 193.042 13.056 197.01 13.056C199.613 13.056 201.447 13.6107 202.514 14.72C203.581 15.8293 204.114 17.2587 204.114 19.008C204.114 20.544 203.773 21.696 203.09 22.464C202.45 23.232 201.661 23.616 200.722 23.616C199.911 23.616 199.165 23.36 198.482 22.848C198.994 21.4827 199.25 20.224 199.25 19.072C199.25 17.3227 198.674 16.448 197.522 16.448C196.242 16.448 194.962 17.5147 193.682 19.648C192.402 21.7387 191.335 24.256 190.482 27.2C189.671 30.1013 189.266 32.6187 189.266 34.752C189.266 38.2933 190.546 40.064 193.106 40.064C194.258 40.064 195.538 39.7227 196.946 39.04C198.397 38.3147 199.677 37.4827 200.786 36.544C199.634 42.8587 195.943 46.016 189.714 46.016ZM209.927 45.888C208.519 45.888 207.324 45.3973 206.343 44.416C205.361 43.4347 204.871 42.24 204.871 40.832C204.871 39.424 205.361 38.2293 206.343 37.248C207.324 36.224 208.519 35.712 209.927 35.712C211.335 35.712 212.529 36.224 213.511 37.248C214.535 38.2293 215.047 39.424 215.047 40.832C215.047 42.24 214.535 43.4347 213.511 44.416C212.529 45.3973 211.335 45.888 209.927 45.888ZM227.379 46.016C224.947 46.016 222.92 45.184 221.299 43.52C219.678 41.856 218.867 39.2533 218.867 35.712C218.867 32.5547 219.486 29.248 220.723 25.792C222.003 22.2933 223.88 19.3493 226.355 16.96C228.872 14.528 231.859 13.312 235.315 13.312C237.064 13.312 238.366 13.6107 239.219 14.208C240.072 14.8053 240.499 15.5947 240.499 16.576V17.024L241.203 13.632H250.419L245.811 35.392C245.64 36.032 245.555 36.7147 245.555 37.44C245.555 39.2747 246.43 40.192 248.179 40.192C249.374 40.192 250.398 39.6373 251.251 38.528C252.147 37.4187 252.851 35.968 253.363 34.176H256.051C254.472 38.784 252.51 41.92 250.163 43.584C247.859 45.2053 245.534 46.016 243.187 46.016C241.395 46.016 239.944 45.5253 238.835 44.544C237.768 43.52 237.128 42.048 236.915 40.128C235.678 41.8773 234.291 43.3067 232.755 44.416C231.262 45.4827 229.47 46.016 227.379 46.016ZM231.539 39.808C232.606 39.808 233.651 39.3173 234.675 38.336C235.742 37.312 236.467 35.9253 236.851 34.176L239.923 19.712C239.923 19.1573 239.71 18.624 239.283 18.112C238.856 17.5573 238.195 17.28 237.299 17.28C235.592 17.28 234.056 18.2827 232.691 20.288C231.326 22.2507 230.259 24.64 229.491 27.456C228.723 30.2293 228.339 32.6827 228.339 34.816C228.339 36.9493 228.638 38.3147 229.235 38.912C229.875 39.5093 230.643 39.808 231.539 39.808ZM264.075 10.176C262.667 10.176 261.472 9.6853 260.491 8.704C259.509 7.72267 259.019 6.528 259.019 5.12C259.019 3.712 259.509 2.51733 260.491 1.536C261.472 0.512001 262.667 0 264.075 0C265.483 0 266.677 0.512001 267.659 1.536C268.683 2.51733 269.195 3.712 269.195 5.12C269.195 6.528 268.683 7.72267 267.659 8.704C266.677 9.6853 265.483 10.176 264.075 10.176ZM259.723 46.016C257.675 46.016 256.011 45.376 254.731 44.096C253.493 42.816 252.874 40.896 252.874 38.336C252.874 37.2693 253.045 35.8827 253.386 34.176L257.739 13.632H266.955L262.347 35.392C262.176 36.032 262.091 36.7147 262.091 37.44C262.091 38.2933 262.283 38.912 262.667 39.296C263.093 39.6373 263.776 39.808 264.715 39.808C265.483 39.808 266.165 39.68 266.763 39.424C266.592 41.5573 265.824 43.2 264.459 44.352C263.136 45.4613 261.557 46.016 259.723 46.016Z" fill="url(#paint0_linear_11_1170)"/>
<defs>
<linearGradient id="paint0_linear_11_1170" x1="5.824" y1="22.31" x2="266.824" y2="22.31" gradientUnits="userSpaceOnUse">
<stop stop-color="#8867E7"/>
<stop offset="1" stop-color="#E41E89"/>
</linearGradient>
</defs>
</svg>
